<svg width="1282" height="184" viewBox="0 0 1282 184" fill="none" xmlns="http://www.w3.org/2000/svg">
<g clip-path="url(#clip0_3_7869)">
<path d="M183.14 76.6401H0V107.28H183.14V76.6401Z" fill="#FFA400"/>
<path d="M183.14 0H152.65V76.64H183.14V0Z" fill="#001E61"/>
<path d="M183.14 107.36H152.65V184H183.14V107.36Z" fill="#001E61"/>
<path d="M183.14 0H76.28V153.36H106.86V30.64H183.14V0Z" fill="#001E61"/>
<path d="M30.49 153.36V76.6401H0V184H152.65V153.36H30.49Z" fill="#FFA400"/>
<path d="M254.75 54.1899C261.07 54.0099 265.28 52.3499 265.28 47.0099C265.28 41.9499 261.16 40.4799 253.83 40.4799H245.86V54.1899H254.74H254.75ZM234.7 11.1299H269.22V20.4199H245.87V31.2799H253.93C269.59 31.2799 276.91 36.7999 276.91 47.0099C276.91 57.2199 269.03 63.4799 253.93 63.4799H234.79V11.1299H234.7Z" fill="black"/>
<path d="M285.34 52.8999H287.45C291.75 52.8999 294.5 44.9899 294.5 27.9699V11.1299H329.3V63.4799H318.22V20.4199H305.58V30.0799C305.58 54.6399 298.35 63.4799 287.63 63.4799H285.25V52.8999H285.34Z" fill="black"/>
<path d="M372.24 43.5199L365.19 22.0799L358.23 43.5199H372.24ZM359.23 11.1299H371.41L390.73 63.4799H378.83L375.35 52.8099H355.2L351.63 63.4799H340.18L359.23 11.1299Z" fill="black"/>
<path d="M401.54 11.1299H430.66V20.4199H412.62V63.4799H401.54V11.1299Z" fill="black"/>
<path d="M463.63 55.2899C471.32 55.2899 478.56 48.8499 478.56 36.7999C478.56 24.7499 471.33 19.2299 463.63 19.2299C455.93 19.2299 448.7 24.8399 448.7 36.8899C448.7 48.9399 455.93 55.2899 463.63 55.2899ZM463.63 9.93994C479.75 9.93994 490.46 19.9699 490.46 36.7999C490.46 53.6299 479.75 64.5799 463.63 64.5799C447.51 64.5799 436.8 53.7199 436.8 36.7999C436.8 19.8799 447.61 9.93994 463.63 9.93994Z" fill="black"/>
<path d="M531.85 54.1899V20.4199H516.92V30.0799C516.92 42.5899 515.09 50.1399 513.62 54.1799H531.84L531.85 54.1899ZM502.54 54.1899C504.01 49.8699 505.84 41.7699 505.84 27.9699V11.1299H543.02V54.1899H549.16V77.0999H538.08V63.4799H508.59V77.1899H497.51V54.1899H502.55H502.54Z" fill="black"/>
<path d="M571.04 11.1299H559.96V63.4799H571.04V11.1299Z" fill="black"/>
<path d="M605.47 0C605.65 1.38 607.03 3.68 608.95 3.68H609.68C611.6 3.68 612.98 1.38 613.16 0H623.6C622.78 5.52 616.73 9.94 609.96 9.94H608.77C601.99 9.94 595.95 5.43 595.13 0H605.48H605.47ZM585.69 11.13H596.77V48.02L619.75 11.13H632.75V63.48H621.67V26.5L598.69 63.48H585.69V11.13Z" fill="black"/>
<path d="M647.41 11.1299H658.49V31.1899H681.11V11.1299H692.19V63.4799H681.11V40.4799H658.49V63.4799H647.41V11.1299Z" fill="black"/>
<path d="M706.84 11.1299H717.92V48.0199L740.9 11.1299H753.91V63.4799H742.83V26.4999L719.84 63.4799H706.84V11.1299Z" fill="black"/>
<path d="M788.34 0C788.52 1.38 789.9 3.68 791.82 3.68H792.55C794.47 3.68 795.85 1.38 796.03 0H806.47C805.65 5.52 799.6 9.94 792.83 9.94H791.64C784.86 9.94 778.82 5.43 778 0H788.35H788.34ZM768.56 11.13H779.64V48.02L802.62 11.13H815.62V63.48H804.54V26.5L781.56 63.48H768.56V11.13Z" fill="black"/>
<path d="M891.91 48.0199C898.69 48.0199 903.36 44.0599 903.36 36.2399C903.36 28.4199 899.24 25.1099 891.91 25.1099H890.08V48.0199H891.91ZM877.16 48.0199H878.99V25.0199H876.61C869.56 25.2999 865.62 28.9799 865.62 36.1499C865.71 44.0599 870.38 48.0199 877.16 48.0199ZM877.07 15.7299H878.99V11.1299H890.07V15.7299H891.99C907.65 15.7299 914.97 24.3799 914.97 36.1499C914.97 47.9199 907.09 57.2199 891.99 57.2199H890.07V63.4799H878.99V57.3199H877.07C861.96 57.3199 854.09 48.3999 854.09 36.2499C854.09 24.0999 861.42 15.7299 877.07 15.7299Z" fill="black"/>
<path d="M951.89 55.2899C959.58 55.2899 966.82 48.8499 966.82 36.7999C966.82 24.7499 959.59 19.2299 951.89 19.2299C944.19 19.2299 936.96 24.7499 936.96 36.7999C936.96 48.8499 944.1 55.2899 951.89 55.2899ZM951.89 9.93994C968.01 9.93994 978.72 19.9699 978.72 36.7999C978.72 53.6299 968.01 64.5799 951.89 64.5799C935.77 64.5799 925.06 53.7199 925.06 36.7999C925.06 19.8799 935.77 9.93994 951.89 9.93994Z" fill="black"/>
<path d="M990.99 11.1299H1002.07V31.1899H1024.68V11.1299H1035.76V63.4799H1024.68V40.4799H1002.07V63.4799H990.99V11.1299Z" fill="black"/>
<path d="M1081 54.1899V20.4199H1066.07V30.0799C1066.07 42.5899 1064.24 50.1399 1062.77 54.1799H1080.99L1081 54.1899ZM1051.7 54.1899C1053.17 49.8699 1055 41.7699 1055 27.9699V11.1299H1092.18V54.1899H1098.32V77.0999H1087.24V63.4799H1057.66V77.1899H1046.58V54.1899H1051.71H1051.7Z" fill="black"/>
<path d="M277.1 94.9399C302.65 94.9399 314.37 110.12 314.37 125.39H296.06C296.06 116.83 289.19 110.03 277.2 110.03C265.21 110.03 254.12 117.85 254.12 138.73C254.12 159.61 265.2 168.81 277.2 168.81C289.2 168.81 296.43 160.71 296.43 152.25H314.56C314.56 167.43 302.75 183.99 277.11 183.99C251.47 183.99 234.71 167.52 234.71 138.82C234.71 110.12 251.47 94.9399 277.11 94.9399H277.1Z" fill="black"/>
<path d="M328.38 96.8799H389.54V111.96H346.51V129.44H382.04V144.53H346.51V166.89H389.54V181.97H328.38V96.8799Z" fill="black"/>
<path d="M436.06 141.77C446.32 141.4 453.18 137.35 453.18 126.31C453.18 115.27 446.4 111.96 434.5 111.96H421.5V141.77H436.06ZM403.37 96.8799H434.6C460.15 96.8799 472.05 107.18 472.05 126.32C472.05 145.46 459.23 156.86 434.6 156.86H421.51V181.98H403.38V96.8799H403.37Z" fill="black"/>
<path d="M485.79 96.8799H533.22V111.96H503.92V182.07H485.79V96.8799Z" fill="black"/>
<path d="M562.71 96.8799H544.58V182.07H562.71V96.8799Z" fill="black"/>
<path d="M614.08 141.77H627.08V111.96H612.52C602.26 112.33 595.4 116.47 595.4 127.42C595.4 138.37 602.08 141.77 614.08 141.77ZM593.47 153.73C582.02 149.31 576.53 140.48 576.53 127.42C576.53 107.64 589.35 96.8799 613.98 96.8799H645.21V182.07H627.08V156.95H611.6L596.4 182.07H576.53L593.47 153.73Z" fill="black"/>
<path d="M699.06 96.8799H770.85V182.07H752.72V111.96H717.19V182.07H699.06V96.8799Z" fill="black"/>
<path d="M821.12 141.77C831.38 141.4 838.24 137.35 838.24 126.31C838.24 115.27 831.46 111.96 819.56 111.96H806.56V141.77H821.12ZM788.43 96.8799H819.66C845.21 96.8799 857.11 107.18 857.11 126.32C857.11 145.46 844.29 156.86 819.66 156.86H806.57V181.98H788.44V96.8799H788.43Z" fill="black"/>
<path d="M870.84 96.8799H888.98V157.04L926.43 96.8799H947.67V182.07H929.54V121.9L892.09 182.07H870.84V96.8799Z" fill="black"/>
<path d="M959.03 96.8799H1027.07V111.96H1002.07V182.07H983.94V111.96H958.94V96.8799H959.03Z" fill="black"/>
<path d="M1051.79 96.8799L1076.61 141.5L1096.94 96.8799H1116.9L1085.86 159.81C1078.63 173.43 1068.74 182.07 1055 182.07H1048.86V166.25H1054.63C1059.76 166.25 1064.7 163.95 1067.36 157.97L1032.01 96.9699H1051.79V96.8799Z" fill="black"/>
<path d="M1115.8 164.95H1119.28C1126.24 164.95 1130.73 152.16 1130.73 124.29V96.8701H1187.5V182.06H1169.37V111.96H1148.77V127.69C1148.77 167.71 1137.05 182.06 1119.56 182.06H1115.71V164.95H1115.8Z" fill="black"/>
<path d="M1205.17 96.8799H1223.3V157.04L1260.76 96.8799H1282V182.07H1263.87V121.9L1226.42 182.07H1205.17V96.8799Z" fill="black"/>
</g>
<defs>
<clipPath id="clip0_3_7869">
<rect width="1282" height="184" fill="white"/>
</clipPath>
</defs>
</svg>
