<svg width="1282" height="184" viewBox="0 0 1282 184" fill="none" xmlns="http://www.w3.org/2000/svg">
<g clip-path="url(#clip0_3_7903)">
<path d="M183.14 76.6401H0V107.28H183.14V76.6401Z" fill="#FFA400"/>
<path d="M183.14 0H152.65V76.64H183.14V0Z" fill="#001E61"/>
<path d="M183.14 107.36H152.65V184H183.14V107.36Z" fill="#001E61"/>
<path d="M183.14 0H76.28V153.36H106.86V30.64H183.14V0Z" fill="#001E61"/>
<path d="M30.49 153.36V76.6401H0V184H152.65V153.36H30.49Z" fill="#FFA400"/>
<path d="M253.01 65.2301C253.01 73.4201 260.15 79.0301 272.79 79.0301C282.4 79.0301 288.63 74.7101 288.63 68.8201C288.63 50.2401 237.08 65.9701 237.08 28.9801C237.08 16.4701 249.26 4.14014 271.97 4.14014C298.07 4.14014 306.86 19.9601 306.86 32.5701H287.81C287.81 25.8501 283.78 19.4101 271.97 19.4101C263.18 19.4101 256.22 23.0901 256.22 28.9801C256.22 50.1401 307.77 33.0301 307.77 68.8201C307.77 82.6201 296.14 94.3001 272.7 94.3001C244.31 94.3001 233.87 79.1201 233.87 65.2301H253.01Z" fill="black"/>
<path d="M321.14 5.97998H382.86V21.25H339.36V39.01H375.26V54.28H339.36V77H382.86V92.28H321.14V5.97998Z" fill="black"/>
<path d="M427.64 48.94C438.81 48.94 446.5 45.35 446.5 35.69C446.5 25.2 438.81 21.25 427.64 21.25H414.55V48.94H427.64ZM396.23 5.97998H427.73C452.55 5.97998 465.55 16.93 465.55 35.7C465.55 47.94 459.6 56.77 448.06 61.09L465.55 92.37H444.85L429.1 64.31H414.54V92.37H396.23V5.97998Z" fill="black"/>
<path d="M478.92 5.97998H497.23V39.01H534.41V5.97998H552.73V92.37H534.41V54.37H497.23V92.37H478.92V5.97998Z" fill="black"/>
<path d="M588.07 5.97998H569.76V92.37H588.07V5.97998Z" fill="black"/>
<path d="M618.47 5.97998L639.53 42.04L660.6 5.97998H679.46L648.33 57.22V92.28H630.01V56.86L598.88 5.97998H618.47Z" fill="black"/>
<path d="M759.22 51.52C769.57 51.15 776.53 47.1 776.53 35.88C776.53 24.66 769.75 21.34 757.67 21.34H744.48V51.52H759.22ZM726.25 5.97998H757.75C783.57 5.97998 795.57 16.47 795.57 35.79C795.57 55.11 782.57 66.79 757.75 66.79H744.47V92.27H726.16V5.97998H726.25Z" fill="black"/>
<path d="M840.35 48.94C851.52 48.94 859.21 45.35 859.21 35.69C859.21 25.2 851.52 21.25 840.35 21.25H827.26V48.94H840.35ZM809.03 5.97998H840.53C865.35 5.97998 878.35 16.93 878.35 35.7C878.35 47.94 872.4 56.77 860.86 61.09L878.35 92.37H857.65L841.9 64.31H827.34V92.37H809.03V5.97998Z" fill="black"/>
<path d="M905.18 5.97998L926.24 42.04L947.31 5.97998H966.17L935.04 57.22V92.28H916.72V56.86L885.5 5.97998H905.18Z" fill="black"/>
<path d="M970.75 5.97998H1039.43V21.25H1014.25V92.28H995.93V21.34H970.75V5.97998Z" fill="black"/>
<path d="M1049.13 5.97998H1067.44V59.16C1067.44 75.26 1076.6 79.03 1084.75 79.03C1092.9 79.03 1102.06 75.17 1102.06 59.16V5.97998H1120.37V59.16C1120.37 84.46 1104.25 94.21 1084.75 94.21C1065.25 94.21 1049.31 84.37 1049.31 59.16V5.97998H1049.13Z" fill="black"/>
<path d="M1136.22 5.97998H1154.53V77H1194.18V92.28H1136.22V5.97998Z" fill="black"/>
<path d="M1251.6 59.43L1239.97 24.1L1228.52 59.43H1251.6ZM1230.17 5.97998H1250.22L1282 92.37H1262.5L1256.73 74.8H1223.58L1217.81 92.37H1198.95L1230.18 5.97998H1230.17Z" fill="black"/>
<path d="M258.6 128.06C274.63 128.06 281.95 137.63 281.95 147.2H270.5C270.5 141.86 266.2 137.54 258.69 137.54C251.18 137.54 244.22 142.42 244.22 155.57C244.22 168.72 251.18 174.43 258.69 174.43C266.2 174.43 270.69 169.37 270.69 164.03H282.04C282.04 173.6 274.62 183.99 258.6 183.99C242.58 183.99 232.04 173.59 232.04 155.56C232.04 137.53 242.57 128.05 258.6 128.05V128.06Z" fill="black"/>
<path d="M290.92 129.26H302.28V149.78H325.35V129.26H336.71V182.8H325.35V159.25H302.28V182.8H290.92V129.26Z" fill="black"/>
<path d="M376.72 162.38L369.49 140.48L362.35 162.38H376.73H376.72ZM363.45 129.26H375.9L395.59 182.8H383.5L379.93 171.85H359.33L355.76 182.8H344.04L363.45 129.26Z" fill="black"/>
<path d="M422.33 155.94C429.29 155.94 434.05 153.73 434.05 147.75C434.05 141.31 429.29 138.83 422.33 138.83H414.18V155.94H422.33ZM402.82 129.26H422.32C437.7 129.26 445.76 136.07 445.76 147.66C445.76 155.3 442.1 160.72 434.86 163.39L445.76 182.8H432.94L423.14 165.41H414.07V182.8H402.72V129.26H402.81H402.82Z" fill="black"/>
<path d="M466 129.26H454.65V182.8H466V129.26Z" fill="black"/>
<path d="M473.24 129.26H515.82V138.74H500.16V182.8H488.81V138.74H473.15V129.26H473.24Z" fill="black"/>
<path d="M531.48 129.26L544.58 151.62L557.67 129.26H569.39L550.07 161V182.71H538.71V160.72L519.3 129.17H531.48V129.26Z" fill="black"/>
<path d="M599.88 129.26H635.87V138.74H611.24V152.08H632.76V161.55H611.24V182.71H599.88V129.26Z" fill="black"/>
<path d="M668.2 174.52C676.08 174.52 683.4 167.99 683.4 155.66C683.4 143.33 676.07 137.63 668.2 137.63C660.33 137.63 653 143.33 653 155.66C653 167.99 660.33 174.52 668.2 174.52ZM668.2 128.06C684.59 128.06 695.58 138.36 695.58 155.57C695.58 172.78 684.59 184 668.2 184C651.81 184 640.82 172.87 640.82 155.57C640.82 138.27 651.72 128.06 668.2 128.06Z" fill="black"/>
<path d="M703.63 129.26H714.98V162.2C714.98 172.14 720.66 174.53 725.69 174.53C730.72 174.53 736.4 172.14 736.4 162.2V129.26H747.75V162.2C747.75 177.84 737.77 183.91 725.59 183.91C713.41 183.91 703.61 177.84 703.61 162.2V129.26H703.63Z" fill="black"/>
<path d="M758.12 129.26H771.4L794.84 167.07V129.26H806.19V182.8H792.92L769.47 144.99V182.8H758.12V129.26Z" fill="black"/>
<path d="M840.72 173.33C847.68 173.33 855.55 167.99 855.55 155.67C855.55 143.35 848.22 138.74 840.72 138.74H828.72V173.33H840.72ZM817.37 129.26H840.81C856.84 129.26 867.37 138.46 867.37 155.66C867.37 172.86 856.2 182.8 840.81 182.8H817.37V129.26Z" fill="black"/>
<path d="M901.98 162.38L894.75 140.48L887.61 162.38H901.99H901.98ZM888.7 129.26H901.06L920.75 182.8H908.66L905.09 171.85H884.58L881.01 182.8H869.29L888.7 129.26Z" fill="black"/>
<path d="M917.18 129.26H959.76V138.74H944.1V182.8H932.75V138.74H917.09V129.26H917.18Z" fill="black"/>
<path d="M978.34 129.26H966.99V182.8H978.34V129.26Z" fill="black"/>
<path d="M1014.61 174.52C1022.49 174.52 1029.81 167.99 1029.81 155.66C1029.81 143.33 1022.48 137.63 1014.61 137.63C1006.74 137.63 999.41 143.33 999.41 155.66C999.41 167.99 1006.64 174.52 1014.61 174.52ZM1014.61 128.06C1031 128.06 1041.99 138.36 1041.99 155.57C1041.99 172.78 1031 184 1014.61 184C998.22 184 987.23 172.87 987.23 155.57C987.23 138.27 998.13 128.06 1014.61 128.06Z" fill="black"/>
<path d="M1050.78 129.26H1064.06L1087.5 167.07V129.26H1098.86V182.8H1085.58L1062.14 144.99V182.8H1050.78V129.26Z" fill="black"/>
</g>
<defs>
<clipPath id="clip0_3_7903">
<rect width="1282" height="184" fill="white"/>
</clipPath>
</defs>
</svg>
