<svg width="24" height="24" viewBox="0 0 24 24" fill="none" xmlns="http://www.w3.org/2000/svg" aria-hidden="true">
  <path d="M12.3051 0.211256C12.6563 0.222194 12.9389 0.504637 12.9497 0.855787L13.1596 7.71223C13.1706 8.07889 12.8827 8.38428 12.5161 8.39583C12.149 8.40711 11.8419 8.11933 11.8305 7.75227L11.6674 2.45051L1.09518 11.4163C0.815131 11.6538 0.395251 11.6201 0.157679 11.3402C-0.0798032 11.0602 -0.0449853 10.6403 0.234828 10.4027L10.7387 1.49251L5.40768 1.32942C5.04073 1.31798 4.75284 1.01087 4.76412 0.643873C4.77574 0.277096 5.08184 -0.0109236 5.44869 0.000318202L12.3051 0.211256Z" fill="white" transform="translate(4.33 6.42)"/>
</svg>
